<svg xmlns="http://www.w3.org/2000/svg" xmlns:xlink="http://www.w3.org/1999/xlink" viewBox="0 0 401.12 441.2"><defs><style>.cls-1{isolation:isolate;}.cls-2,.cls-3,.cls-4,.cls-5{mix-blend-mode:screen;}.cls-2{fill:url(#linear-gradient);}.cls-3{fill:url(#linear-gradient-2);}.cls-4{fill:url(#linear-gradient-3);}.cls-5{fill:url(#linear-gradient-4);}</style><linearGradient id="linear-gradient" x1="59.66" y1="361.5" x2="341.46" y2="79.7" gradientUnits="userSpaceOnUse"><stop offset="0" stop-color="#1b28a8"/><stop offset="0.5" stop-color="#5766ff"/><stop offset="1" stop-color="#85f3ff"/></linearGradient><linearGradient id="linear-gradient-2" x1="148.22" y1="556.04" x2="398.2" y2="306.06" gradientTransform="translate(-259.9 271.08) rotate(-60)" xlink:href="#linear-gradient"/><linearGradient id="linear-gradient-3" x1="2.74" y1="666.59" x2="252.72" y2="416.61" gradientTransform="translate(-155.16 631.41) rotate(-120)" xlink:href="#linear-gradient"/><linearGradient id="linear-gradient-4" x1="120.15" y1="379.85" x2="313.35" y2="186.65" gradientTransform="translate(483.81 3.85) rotate(90)" xlink:href="#linear-gradient"/></defs><g class="cls-1"><g id="OBJECTS"><rect class="cls-2" x="129.64" width="141.84" height="441.2" rx="16.6"/><path class="cls-3" d="M441,360.3h0a70.91,70.91,0,0,1-96.87,26L84.91,236.58A70.92,70.92,0,0,1,59,139.7h0a70.91,70.91,0,0,1,96.87-26L415.09,263.42A70.92,70.92,0,0,1,441,360.3Z" transform="translate(-49.44 -29.4)"/><path class="cls-4" d="M441,139.7h0a70.92,70.92,0,0,1-26,96.88L155.83,386.26A70.91,70.91,0,0,1,59,360.3h0a70.92,70.92,0,0,1,25.95-96.88L344.17,113.74A70.91,70.91,0,0,1,441,139.7Z" transform="translate(-49.44 -29.4)"/><polygon class="cls-5" points="341.99 220.6 271.27 98.12 129.84 98.12 59.13 220.6 129.84 343.08 271.27 343.08 341.99 220.6"/></g></g></svg>